# xmcd
#
# Track frame offsets:
#	150
#	7002
#	17815
#	34017
#	49590
#	61682
#	83145
#	86767
#	94057
#	104325
#	125500
#	140740
#	150302
#	161350
#	168412
#	174572
#	184180
#	192135
#	202302
#	218572
#	239042
#	247285
#	268320
#	277677
#
# Disc length: 3808 seconds
#
# Revision: 1
# Processed by: cddbd v1.5.1PL0 Copyright (c) Steve Scherf et al.
# Submitted via: CDex 1.50Beta5
#
DISCID=520ede18
DTITLE=HUMMING BIRD - 人形草紙あやつり左近 オリジナル・サウンドトラックII
DYEAR=2000
DGENRE=
TTITLE0=HUMMING BIRD/光なき夜をゆけ
TTITLE1=都留教博/王家の謎
TTITLE2=都留教博/闇の舞踏
TTITLE3=都留教博/呪術
TTITLE4=都留教博/暗示
TTITLE5=都留教博/あの頃なら
TTITLE6=都留教博/獅子の舞
TTITLE7=都留教博/逃走
TTITLE8=都留教博/忘れえぬ思い
TTITLE9=都留教博/ふれあい
TTITLE10=都留教博/真実の鍵
TTITLE11=都留教博/蜃気楼
TTITLE12=都留教博/さだめ
TTITLE13=都留教博/混迷
TTITLE14=都留教博/戦慄
TTITLE15=都留教博/魂の声
TTITLE16=都留教博/右近のテーマ
TTITLE17=都留教博/回想
TTITLE18=都留教博/幻の行軍
TTITLE19=KOKIA/さよならは言わないで
TTITLE20=都留教博/呪いの呼出状
TTITLE21=都留教博/そのからくり
TTITLE22=都留教博/さよならは言わないで
TTITLE23=新居昭乃/叶えて
EXTD=
EXTT0=
EXTT1=
EXTT2=
EXTT3=
EXTT4=
EXTT5=
EXTT6=
EXTT7=
EXTT8=
EXTT9=
EXTT10=
EXTT11=
EXTT12=
EXTT13=
EXTT14=
EXTT15=
EXTT16=
EXTT17=
EXTT18=
EXTT19=
EXTT20=
EXTT21=
EXTT22=
EXTT23=
PLAYORDER=
